<svg width="92" height="92" viewBox="0 0 92 92" fill="none" xmlns="http://www.w3.org/2000/svg">
<g filter="url(#filter0_d_172_162)">
<circle cx="44" cy="43" r="39" fill="#3C4CFF"/>
</g>
<path d="M55.6348 47.3768C55.4606 47.5554 55.3275 47.7698 55.2448 48.0052C55.1902 48.255 55.1902 48.5137 55.2448 48.7635L56.5231 57.2785C56.6372 57.9431 56.5621 58.6263 56.3065 59.2502C56.0469 59.8806 55.6105 60.4224 55.0498 60.8102C54.4939 61.2008 53.8424 61.4329 53.1648 61.4818C52.4898 61.5095 51.8209 61.3442 51.2365 61.0052L44.3248 57.1702C44.0935 57.0399 43.832 56.9727 43.5665 56.9752C43.2941 56.9729 43.0257 57.04 42.7865 57.1702L35.9181 61.0052C35.3195 61.3259 34.6469 61.4828 33.9681 61.4602C32.9521 61.3937 32.0112 60.9022 31.3762 60.1063C30.7411 59.3105 30.4708 58.2839 30.6315 57.2785L32.0181 48.7635C32.0833 48.5149 32.0833 48.2538 32.0181 48.0052C31.9516 47.7675 31.8248 47.551 31.6498 47.3768L25.5615 41.2452C25.1071 40.7655 24.7859 40.1755 24.6298 39.5335C24.4567 38.895 24.4567 38.222 24.6298 37.5835C24.8696 36.9542 25.2736 36.4005 25.7998 35.9802C26.308 35.5523 26.9214 35.268 27.5765 35.1568L35.5715 33.9435C35.8295 33.8971 36.0738 33.7934 36.2865 33.6402C36.4973 33.4793 36.6679 33.2716 36.7848 33.0335L40.2515 25.5802C40.5388 24.9592 40.9973 24.4331 41.5731 24.0635C42.7567 23.3122 44.2679 23.3122 45.4515 24.0635C46.0273 24.4331 46.4858 24.9592 46.7731 25.5802L50.2615 33.0335C50.3715 33.276 50.5433 33.4852 50.7598 33.6402C50.9701 33.7976 51.2155 33.9017 51.4748 33.9435L59.4698 35.1568C60.1248 35.268 60.7382 35.5523 61.2465 35.9802C61.744 36.4173 62.1177 36.9778 62.3298 37.6052C62.5029 38.2437 62.5029 38.9167 62.3298 39.5552C62.1737 40.1972 61.8525 40.7872 61.3981 41.2668L55.6348 47.3768Z" fill="#F9FBFC"/>
<defs>
<filter id="filter0_d_172_162" x="0" y="0" width="92" height="92" filterUnits="userSpaceOnUse" color-interpolation-filters="sRGB">
<feFlood flood-opacity="0" result="BackgroundImageFix"/>
<feColorMatrix in="SourceAlpha" type="matrix" values="0 0 0 0 0 0 0 0 0 0 0 0 0 0 0 0 0 0 127 0" result="hardAlpha"/>
<feOffset dx="2" dy="3"/>
<feGaussianBlur stdDeviation="3.5"/>
<feComposite in2="hardAlpha" operator="out"/>
<feColorMatrix type="matrix" values="0 0 0 0 0 0 0 0 0 0 0 0 0 0 0 0 0 0 0.2 0"/>
<feBlend mode="normal" in2="BackgroundImageFix" result="effect1_dropShadow_172_162"/>
<feBlend mode="normal" in="SourceGraphic" in2="effect1_dropShadow_172_162" result="shape"/>
</filter>
</defs>
</svg>
