<svg width="92" height="92" viewBox="0 0 92 92" fill="none" xmlns="http://www.w3.org/2000/svg">
<g filter="url(#filter0_d_172_155)">
<circle cx="44" cy="43" r="39" fill="#3C4CFF"/>
</g>
<path fill-rule="evenodd" clip-rule="evenodd" d="M61.0075 36.8483L62.6325 38.1483C62.9394 38.4061 63.0621 38.8226 62.9439 39.2056C62.8257 39.5885 62.4896 39.8634 62.0908 39.9033C61.8194 39.9335 61.547 39.8557 61.3325 39.6867L60.9858 39.3833V55.005C60.9865 55.6604 60.8538 56.3091 60.5958 56.9117C60.0875 58.1201 59.1216 59.0781 57.9091 59.5767C57.302 59.8171 56.6554 59.942 56.0025 59.945H31.9741C31.3212 59.942 30.6745 59.8171 30.0675 59.5767C29.4656 59.337 28.9197 58.9756 28.4641 58.515C27.9952 58.0573 27.6199 57.5128 27.3591 56.9117C27.1187 56.3046 26.9938 55.658 26.9908 55.005V39.3617L26.6008 39.665C26.4311 39.8223 26.203 39.901 25.9725 39.8817C25.7723 39.8771 25.5773 39.8171 25.4091 39.7083C25.2518 39.5794 25.1259 39.4164 25.0408 39.2317C24.9864 39.0331 24.9864 38.8236 25.0408 38.625C25.1015 38.4323 25.2139 38.2599 25.3658 38.1267L27.0125 36.8267L29.0058 35.245L35.1158 30.3917L37.6075 28.3983L42.4391 24.5633C42.8768 24.1982 43.4291 23.9987 43.9991 24C44.584 24.0247 45.1392 24.2638 45.5591 24.6717L50.4991 28.3983L52.8825 30.3917L58.9925 35.245L61.0075 36.8483ZM49.1341 50.6727C49.6924 50.0898 50.003 49.3132 50.0008 48.506L50.0441 42.396C50.051 41.588 49.7397 40.8098 49.1775 40.2294C48.6033 39.6552 47.8228 39.3352 47.0108 39.341H41.0091C40.1985 39.3423 39.4207 39.6612 38.8425 40.2294C38.2662 40.8022 37.9458 41.5836 37.9541 42.396V48.506C37.9483 49.3181 38.2683 50.0985 38.8425 50.6727C39.4175 51.2431 40.1993 51.5559 41.0091 51.5394H46.9675C47.7768 51.5534 48.5577 51.241 49.1341 50.6727Z" fill="#F9FBFC"/>
<path d="M47.0118 42.3926H41.0102C40.742 42.3925 40.4852 42.5005 40.2977 42.6921C40.1101 42.8837 40.0077 43.1428 40.0135 43.4109V49.4992C40.0135 49.7636 40.1185 50.0171 40.3054 50.204C40.4923 50.3909 40.7458 50.4959 41.0102 50.4959H47.0118C47.5575 50.4844 47.997 50.0449 48.0085 49.4992V43.4109C48.0086 42.8569 47.5658 42.4044 47.0118 42.3926V42.3926Z" fill="#F9FBFC"/>
<defs>
<filter id="filter0_d_172_155" x="0" y="0" width="92" height="92" filterUnits="userSpaceOnUse" color-interpolation-filters="sRGB">
<feFlood flood-opacity="0" result="BackgroundImageFix"/>
<feColorMatrix in="SourceAlpha" type="matrix" values="0 0 0 0 0 0 0 0 0 0 0 0 0 0 0 0 0 0 127 0" result="hardAlpha"/>
<feOffset dx="2" dy="3"/>
<feGaussianBlur stdDeviation="3.5"/>
<feComposite in2="hardAlpha" operator="out"/>
<feColorMatrix type="matrix" values="0 0 0 0 0 0 0 0 0 0 0 0 0 0 0 0 0 0 0.15 0"/>
<feBlend mode="normal" in2="BackgroundImageFix" result="effect1_dropShadow_172_155"/>
<feBlend mode="normal" in="SourceGraphic" in2="effect1_dropShadow_172_155" result="shape"/>
</filter>
</defs>
</svg>
